<svg width="51" height="51" viewBox="0 0 51 51" fill="none" xmlns="http://www.w3.org/2000/svg">
<path fill-rule="evenodd" clip-rule="evenodd" d="M20.5843 41.1686C9.2159 41.1686 0 31.9527 0 20.5843C0 9.2159 9.2159 0 20.5843 0C31.9527 0 41.1686 9.2159 41.1686 20.5843C41.1686 25.3411 39.5551 29.721 36.8455 33.2067L50.7071 47.0683L47.0683 50.7071L33.2067 36.8455C29.721 39.5551 25.3411 41.1686 20.5843 41.1686ZM36.0225 20.5843C36.0225 29.1106 29.1106 36.0225 20.5843 36.0225C12.058 36.0225 5.14605 29.1106 5.14605 20.5843C5.14605 12.058 12.058 5.14608 20.5843 5.14608C29.1106 5.14608 36.0225 12.058 36.0225 20.5843Z" fill="white"/>
</svg>
